<?xml version="1.0" encoding="utf-8"?>
<!-- Generator: Adobe Illustrator 23.0.1, SVG Export Plug-In . SVG Version: 6.00 Build 0)  -->
<svg version="1.1" id="Layer_1" xmlns="http://www.w3.org/2000/svg" xmlns:xlink="http://www.w3.org/1999/xlink" x="0px" y="0px"
	 width="49px" height="45px" viewBox="0 0 49 45" style="enable-background:new 0 0 49 45;" xml:space="preserve">
<style type="text/css">
	.st0{fill:none;stroke:#010101;stroke-width:2;stroke-miterlimit:10;}
</style>
<g>
	<g>
		<path class="st0" d="M37.8,1H3.1C2,1,1,2,1,3.3v22.9c0,1.3,1,2.3,2.1,2.3H7v6.6l7.8-6.6h23c1.2,0,2.1-1,2.1-2.3V3.3
			C39.9,2,39,1,37.8,1z"/>
		<path class="st0" d="M42,9.9h3.9c1.2,0,2.1,1,2.1,2.3v19.8c0,1.3-1,2.3-2.1,2.3H42v8.2l-7.8-8.2H14.8"/>
	</g>
	<line class="st0" x1="7.6" y1="8" x2="30.9" y2="8"/>
	<line class="st0" x1="8" y1="15" x2="22" y2="15"/>
</g>
</svg>
